<svg xmlns="http://www.w3.org/2000/svg" xmlns:xlink="http://www.w3.org/1999/xlink" width="128" height="128" viewBox="0 0 128 128" preserveAspectRatio="xMinYMin meet">
	<path stroke="none" fill="#E74C3C" d="M128 128 L0 128 0 0 128 0 128 128"/>
	<path stroke="none" fill="#FFFFFF" d="M81 76.2 Q82.25 76.25 83.15 77.15 L106.1 100.1 Q107 101 107 102.2 107.05 103.45 106.15 104.35 L104.05 106.45 Q103.15 107.35 101.9 107.3 100.7 107.3 99.8 106.4 L76.85 83.45 Q75.95 82.55 75.9 81.3 75.9 80.1 76.8 79.2 L78.9 77.1 Q79.8 76.2 81 76.2"/>
	<path stroke="none" fill="#FFFFFF" d="M58.05 37.95 Q62 41.9 62 47.5 62 53.1 58.05 57.05 54.1 61 48.5 61 42.9 61 38.95 57.05 35 53.1 35 47.5 35 41.9 38.95 37.95 42.9 34 48.5 34 54.1 34 58.05 37.95 M53.25 41.75 Q52.2 43.5 49.35 50.65 47.65 55 45.6 55 45.25 55 43.65 54 L41.25 52.25 43.65 54 Q45.25 55 45.6 55 47.65 55 49.35 50.65 52.2 43.5 53.25 41.75"/>
	<path fill="none" stroke="#FFFFFF" stroke-width="8" stroke-linecap="round" stroke-linejoin="round" d="M74.5 47.5 Q74.5 58.25 66.85 65.85 59.25 73.5 48.5 73.5 37.75 73.5 30.1 65.85 22.5 58.25 22.5 47.5 22.5 36.75 30.1 29.1 37.75 21.5 48.5 21.5 59.25 21.5 66.85 29.1 74.5 36.75 74.5 47.5 M71.35 75.6 L75.65 71.3"/>
	<path fill="none" stroke="#E74C3C" stroke-width="3" stroke-linecap="round" stroke-linejoin="round" d="M41.25 52.25 L43.65 54 Q45.25 55 45.6 55 47.65 55 49.35 50.65 52.2 43.5 53.25 41.75"/>
</svg>